<svg width="65" height="65" viewBox="0 0 65 65" fill="none" xmlns="http://www.w3.org/2000/svg">
<g clip-path="url(#clip0_0_151)">
<path d="M47.9194 32.5C47.9119 30.0721 47.6517 27.6517 47.143 25.2778H53.643C53.3083 24.2875 52.904 23.3222 52.4333 22.3889H46.3847C45.2477 18.5901 43.484 15.0079 41.1667 11.7903C39.6861 11.1677 38.1423 10.7076 36.5625 10.418C39.7373 13.8292 42.1336 17.8888 43.5861 22.3166H33.8542V10.1111H31.1458V22.3347H21.4139C22.8693 17.8989 25.272 13.8327 28.4555 10.418C26.8825 10.7028 25.3448 11.1568 23.8694 11.7722C21.5429 14.9764 19.7671 18.5462 18.6153 22.3347H12.5305C12.0513 23.285 11.641 24.2686 11.3028 25.2778H17.8569C17.3483 27.6517 17.0881 30.0721 17.0805 32.5C17.0855 35.1555 17.3884 37.8022 17.9833 40.3903H11.5917C11.9652 41.4023 12.4117 42.3859 12.9278 43.3333H18.7597C19.8651 46.7924 21.5038 50.0576 23.6167 53.0111C25.1297 53.66 26.7102 54.1384 28.3292 54.4375C25.3823 51.2232 23.1161 47.446 21.6667 43.3333H31.1639V54.7805H33.8722V43.3333H43.3333C41.879 47.4478 39.6064 51.2251 36.6528 54.4375C38.2793 54.1281 39.866 53.6376 41.3833 52.975C43.4928 50.0326 45.1314 46.7798 46.2403 43.3333H52.018C52.5317 42.4034 52.9782 41.438 53.3541 40.4444H46.9444C47.5677 37.8415 47.8948 35.1764 47.9194 32.5ZM31.1458 40.3903H20.7819C19.5108 35.4211 19.455 30.2189 20.6194 25.2236H31.1458V40.3903ZM44.218 40.3903H33.8542V25.2778H44.3805C44.8992 27.6498 45.1535 30.0719 45.1389 32.5C45.1536 35.1577 44.8443 37.8073 44.218 40.3903Z" fill="#FFF8F8"/>
<path d="M32.5 3.61108C26.7863 3.61108 21.2009 5.30539 16.4502 8.47974C11.6994 11.6541 7.99666 16.1659 5.81013 21.4447C3.6236 26.7234 3.0515 32.532 4.16619 38.1359C5.28087 43.7398 8.03227 48.8873 12.0725 52.9275C16.1126 56.9677 21.2601 59.7191 26.864 60.8338C32.4679 61.9485 38.2765 61.3764 43.5553 59.1898C48.834 57.0033 53.3459 53.3005 56.5202 48.5498C59.6946 43.799 61.3889 38.2137 61.3889 32.5C61.3889 24.8382 58.3452 17.4902 52.9275 12.0724C47.5098 6.65473 40.1618 3.61108 32.5 3.61108ZM32.5 57.7777C27.5005 57.7777 22.6133 56.2952 18.4564 53.5177C14.2995 50.7401 11.0596 46.7923 9.14636 42.1734C7.23315 37.5545 6.73256 32.4719 7.70791 27.5685C8.68326 22.6651 11.0907 18.161 14.6259 14.6259C18.1611 11.0907 22.6651 8.68325 27.5685 7.7079C32.4719 6.73255 37.5545 7.23314 42.1734 9.14635C46.7923 11.0596 50.7401 14.2995 53.5177 18.4564C56.2952 22.6133 57.7778 27.5005 57.7778 32.5C57.7778 39.2041 55.1146 45.6336 50.3741 50.3741C45.6336 55.1146 39.2041 57.7777 32.5 57.7777Z" fill="#FFF8F8"/>
</g>
<defs>
<clipPath id="clip0_0_151">
<rect width="65" height="65" fill="white"/>
</clipPath>
</defs>
</svg>
