<svg width="65" height="65" viewBox="0 0 65 65" fill="none" xmlns="http://www.w3.org/2000/svg">
<path d="M35.2083 58.4188C30.656 58.9825 26.0412 58.1107 22.0083 55.925C17.9753 53.7394 14.7254 50.3491 12.7123 46.2274C10.6991 42.1056 10.0231 37.4581 10.7788 32.9337C11.5344 28.4092 13.6838 24.2336 16.9271 20.9897L31.3517 6.56508C31.6564 6.26077 32.0694 6.08984 32.5 6.08984C32.9306 6.08984 33.3436 6.26077 33.6483 6.56508L48.0729 20.9897C50.9417 23.8565 52.963 27.46 53.914 31.4026C54.8651 35.3452 54.7088 39.4739 53.4625 43.3334M43.3333 54.1667L48.75 59.5834L59.5833 48.7501" stroke="#FFF8F8" stroke-width="4" stroke-linecap="round" stroke-linejoin="round"/>
</svg>
