<svg width="66" height="65" viewBox="0 0 66 65" fill="none" xmlns="http://www.w3.org/2000/svg">
<mask id="path-1-inside-1_0_162" fill="white">
<path d="M53.1602 34.1758C52.026 33.5156 50.5026 32.957 48.5898 32.5C50.5026 32.043 52.026 31.4844 53.1602 30.8242C54.1984 30.2883 55.1171 29.5473 55.8606 28.6459C56.6041 27.7446 57.1568 26.7017 57.4854 25.5804C57.8139 24.4591 57.9114 23.2828 57.772 22.1228C57.6326 20.9627 57.2592 19.843 56.6743 18.8315C56.0894 17.82 55.3053 16.9378 54.3694 16.2383C53.4336 15.5387 52.3654 15.0364 51.2297 14.7618C50.0941 14.4872 48.9145 14.4461 47.7624 14.6407C46.6103 14.8354 45.5097 15.262 44.5273 15.8945C43.3848 16.5293 42.1406 17.5703 40.7949 18.9922C41.3535 17.1133 41.6328 15.5137 41.6328 14.2188C41.6328 11.9292 40.7233 9.7334 39.1043 8.11443C37.4854 6.49546 35.2896 5.58594 33 5.58594C30.7104 5.58594 28.5146 6.49546 26.8957 8.11443C25.2767 9.7334 24.3672 11.9292 24.3672 14.2188C24.3672 15.5137 24.6465 17.1133 25.2051 18.9922C23.8594 17.5703 22.6152 16.5293 21.4727 15.8945C20.4903 15.262 19.3897 14.8354 18.2376 14.6407C17.0856 14.4461 15.9059 14.4872 14.7703 14.7618C13.6346 15.0364 12.5664 15.5387 11.6306 16.2383C10.6947 16.9378 9.9106 17.82 9.32573 18.8315C8.74085 19.843 8.3674 20.9627 8.22798 22.1228C8.08856 23.2828 8.18608 24.4591 8.51463 25.5804C8.84319 26.7017 9.39594 27.7446 10.1394 28.6459C10.8829 29.5473 11.8016 30.2883 12.8398 30.8242C13.9909 31.4844 15.5143 32.043 17.4102 32.5C15.5143 32.957 13.9909 33.5156 12.8398 34.1758C11.1978 35.1296 9.91612 36.5981 9.19319 38.3541C8.47026 40.11 8.34646 42.0553 8.84096 43.8887C9.33546 45.7221 10.4207 47.3413 11.9285 48.4956C13.4364 49.6498 15.2827 50.2747 17.1816 50.2734C18.6906 50.274 20.1722 49.8707 21.4727 49.1055C22.6152 48.4707 23.8594 47.4297 25.2051 46.0078C24.6465 47.8867 24.3672 49.4863 24.3672 50.7812C24.3672 53.0708 25.2767 55.2666 26.8957 56.8856C28.5146 58.5045 30.7104 59.4141 33 59.4141C35.2896 59.4141 37.4854 58.5045 39.1043 56.8856C40.7233 55.2666 41.6328 53.0708 41.6328 50.7812C41.6328 49.4863 41.3535 47.8867 40.7949 46.0078C42.1406 47.4297 43.3848 48.4707 44.5273 49.1055C45.8278 49.8707 47.3094 50.274 48.8184 50.2734C50.7173 50.2747 52.5636 49.6498 54.0715 48.4956C55.5793 47.3413 56.6646 45.7221 57.159 43.8887C57.6535 42.0553 57.5297 40.11 56.8068 38.3541C56.0839 36.5981 54.8022 35.1296 53.1602 34.1758ZM27.4141 32.5C27.4141 31.3952 27.7417 30.3152 28.3555 29.3966C28.9693 28.478 29.8417 27.7621 30.8624 27.3393C31.8831 26.9165 33.0062 26.8059 34.0898 27.0214C35.1733 27.2369 36.1686 27.7689 36.9499 28.5501C37.7311 29.3314 38.2631 30.3267 38.4786 31.4102C38.6941 32.4938 38.5835 33.6169 38.1607 34.6376C37.7379 35.6583 37.022 36.5307 36.1034 37.1445C35.1848 37.7583 34.1048 38.0859 33 38.0859C31.5206 38.0793 30.1036 37.4886 29.0575 36.4425C28.0114 35.3964 27.4207 33.9794 27.4141 32.5ZM46.0508 18.5098C47.337 17.769 48.8648 17.5696 50.298 17.9553C51.7313 18.341 52.9526 19.2802 53.6934 20.5664C54.4341 21.8526 54.6336 23.3804 54.2479 24.8136C53.8622 26.2469 52.9229 27.4682 51.6367 28.209C49.7578 29.2754 46.2285 30.0879 41.4043 30.5449C41.0205 28.8784 40.1447 27.3657 38.8906 26.2031C41.709 22.2422 44.1719 19.6016 46.0508 18.5098ZM33 8.63281C34.4794 8.63949 35.8964 9.23015 36.9425 10.2763C37.9886 11.3224 38.5793 12.7393 38.5859 14.2188C38.5859 16.377 37.5195 19.8301 35.5137 24.248C33.8764 23.7399 32.1236 23.7399 30.4863 24.248C28.4805 19.8301 27.4141 16.377 27.4141 14.2188C27.4207 12.7393 28.0114 11.3224 29.0575 10.2763C30.1036 9.23015 31.5206 8.63949 33 8.63281ZM12.332 20.5664C13.0755 19.2901 14.2921 18.3583 15.7181 17.9733C17.1441 17.5883 18.6644 17.781 19.9492 18.5098C21.8281 19.6016 24.291 22.2422 27.1094 26.2031C25.8553 27.3657 24.9795 28.8784 24.5957 30.5449C19.7715 30.0879 16.2422 29.2754 14.3633 28.209C13.7275 27.8411 13.1706 27.3514 12.7243 26.768C12.278 26.1846 11.9512 25.5189 11.7625 24.809C11.5738 24.0991 11.527 23.359 11.6247 22.631C11.7225 21.903 11.9628 21.2014 12.332 20.5664ZM19.9492 46.4902C18.663 47.231 17.1353 47.4304 15.702 47.0447C14.2687 46.659 13.0474 45.7198 12.3066 44.4336C11.5659 43.1474 11.3664 41.6196 11.7521 40.1864C12.1378 38.7531 13.0771 37.5318 14.3633 36.791C16.2422 35.7246 19.7715 34.9121 24.5957 34.4551C24.9795 36.1216 25.8553 37.6343 27.1094 38.7969C24.291 42.7578 21.8281 45.3984 19.9492 46.4902ZM33 56.3672C31.5206 56.3605 30.1036 55.7698 29.0575 54.7237C28.0114 53.6776 27.4207 52.2607 27.4141 50.7812C27.4141 48.623 28.4805 45.1699 30.4863 40.752C32.1236 41.2601 33.8764 41.2601 35.5137 40.752C37.5195 45.1699 38.5859 48.623 38.5859 50.7812C38.5793 52.2607 37.9886 53.6776 36.9425 54.7237C35.8964 55.7698 34.4794 56.3605 33 56.3672ZM53.668 44.4336C52.9246 45.7099 51.7079 46.6417 50.2819 47.0267C48.8559 47.4117 47.3356 47.219 46.0508 46.4902C44.1719 45.3984 41.709 42.7578 38.8906 38.7969C40.1447 37.6343 41.0205 36.1216 41.4043 34.4551C46.2285 34.9121 49.7578 35.7246 51.6367 36.791C52.2725 37.1589 52.8294 37.6486 53.2757 38.232C53.722 38.8154 54.0488 39.4811 54.2375 40.191C54.4262 40.9009 54.473 41.641 54.3753 42.369C54.2775 43.097 54.0372 43.7986 53.668 44.4336Z"/>
</mask>
<path d="M53.1602 34.1758C52.026 33.5156 50.5026 32.957 48.5898 32.5C50.5026 32.043 52.026 31.4844 53.1602 30.8242C54.1984 30.2883 55.1171 29.5473 55.8606 28.6459C56.6041 27.7446 57.1568 26.7017 57.4854 25.5804C57.8139 24.4591 57.9114 23.2828 57.772 22.1228C57.6326 20.9627 57.2592 19.843 56.6743 18.8315C56.0894 17.82 55.3053 16.9378 54.3694 16.2383C53.4336 15.5387 52.3654 15.0364 51.2297 14.7618C50.0941 14.4872 48.9145 14.4461 47.7624 14.6407C46.6103 14.8354 45.5097 15.262 44.5273 15.8945C43.3848 16.5293 42.1406 17.5703 40.7949 18.9922C41.3535 17.1133 41.6328 15.5137 41.6328 14.2188C41.6328 11.9292 40.7233 9.7334 39.1043 8.11443C37.4854 6.49546 35.2896 5.58594 33 5.58594C30.7104 5.58594 28.5146 6.49546 26.8957 8.11443C25.2767 9.7334 24.3672 11.9292 24.3672 14.2188C24.3672 15.5137 24.6465 17.1133 25.2051 18.9922C23.8594 17.5703 22.6152 16.5293 21.4727 15.8945C20.4903 15.262 19.3897 14.8354 18.2376 14.6407C17.0856 14.4461 15.9059 14.4872 14.7703 14.7618C13.6346 15.0364 12.5664 15.5387 11.6306 16.2383C10.6947 16.9378 9.9106 17.82 9.32573 18.8315C8.74085 19.843 8.3674 20.9627 8.22798 22.1228C8.08856 23.2828 8.18608 24.4591 8.51463 25.5804C8.84319 26.7017 9.39594 27.7446 10.1394 28.6459C10.8829 29.5473 11.8016 30.2883 12.8398 30.8242C13.9909 31.4844 15.5143 32.043 17.4102 32.5C15.5143 32.957 13.9909 33.5156 12.8398 34.1758C11.1978 35.1296 9.91612 36.5981 9.19319 38.3541C8.47026 40.11 8.34646 42.0553 8.84096 43.8887C9.33546 45.7221 10.4207 47.3413 11.9285 48.4956C13.4364 49.6498 15.2827 50.2747 17.1816 50.2734C18.6906 50.274 20.1722 49.8707 21.4727 49.1055C22.6152 48.4707 23.8594 47.4297 25.2051 46.0078C24.6465 47.8867 24.3672 49.4863 24.3672 50.7812C24.3672 53.0708 25.2767 55.2666 26.8957 56.8856C28.5146 58.5045 30.7104 59.4141 33 59.4141C35.2896 59.4141 37.4854 58.5045 39.1043 56.8856C40.7233 55.2666 41.6328 53.0708 41.6328 50.7812C41.6328 49.4863 41.3535 47.8867 40.7949 46.0078C42.1406 47.4297 43.3848 48.4707 44.5273 49.1055C45.8278 49.8707 47.3094 50.274 48.8184 50.2734C50.7173 50.2747 52.5636 49.6498 54.0715 48.4956C55.5793 47.3413 56.6646 45.7221 57.159 43.8887C57.6535 42.0553 57.5297 40.11 56.8068 38.3541C56.0839 36.5981 54.8022 35.1296 53.1602 34.1758ZM27.4141 32.5C27.4141 31.3952 27.7417 30.3152 28.3555 29.3966C28.9693 28.478 29.8417 27.7621 30.8624 27.3393C31.8831 26.9165 33.0062 26.8059 34.0898 27.0214C35.1733 27.2369 36.1686 27.7689 36.9499 28.5501C37.7311 29.3314 38.2631 30.3267 38.4786 31.4102C38.6941 32.4938 38.5835 33.6169 38.1607 34.6376C37.7379 35.6583 37.022 36.5307 36.1034 37.1445C35.1848 37.7583 34.1048 38.0859 33 38.0859C31.5206 38.0793 30.1036 37.4886 29.0575 36.4425C28.0114 35.3964 27.4207 33.9794 27.4141 32.5ZM46.0508 18.5098C47.337 17.769 48.8648 17.5696 50.298 17.9553C51.7313 18.341 52.9526 19.2802 53.6934 20.5664C54.4341 21.8526 54.6336 23.3804 54.2479 24.8136C53.8622 26.2469 52.9229 27.4682 51.6367 28.209C49.7578 29.2754 46.2285 30.0879 41.4043 30.5449C41.0205 28.8784 40.1447 27.3657 38.8906 26.2031C41.709 22.2422 44.1719 19.6016 46.0508 18.5098ZM33 8.63281C34.4794 8.63949 35.8964 9.23015 36.9425 10.2763C37.9886 11.3224 38.5793 12.7393 38.5859 14.2188C38.5859 16.377 37.5195 19.8301 35.5137 24.248C33.8764 23.7399 32.1236 23.7399 30.4863 24.248C28.4805 19.8301 27.4141 16.377 27.4141 14.2188C27.4207 12.7393 28.0114 11.3224 29.0575 10.2763C30.1036 9.23015 31.5206 8.63949 33 8.63281ZM12.332 20.5664C13.0755 19.2901 14.2921 18.3583 15.7181 17.9733C17.1441 17.5883 18.6644 17.781 19.9492 18.5098C21.8281 19.6016 24.291 22.2422 27.1094 26.2031C25.8553 27.3657 24.9795 28.8784 24.5957 30.5449C19.7715 30.0879 16.2422 29.2754 14.3633 28.209C13.7275 27.8411 13.1706 27.3514 12.7243 26.768C12.278 26.1846 11.9512 25.5189 11.7625 24.809C11.5738 24.0991 11.527 23.359 11.6247 22.631C11.7225 21.903 11.9628 21.2014 12.332 20.5664ZM19.9492 46.4902C18.663 47.231 17.1353 47.4304 15.702 47.0447C14.2687 46.659 13.0474 45.7198 12.3066 44.4336C11.5659 43.1474 11.3664 41.6196 11.7521 40.1864C12.1378 38.7531 13.0771 37.5318 14.3633 36.791C16.2422 35.7246 19.7715 34.9121 24.5957 34.4551C24.9795 36.1216 25.8553 37.6343 27.1094 38.7969C24.291 42.7578 21.8281 45.3984 19.9492 46.4902ZM33 56.3672C31.5206 56.3605 30.1036 55.7698 29.0575 54.7237C28.0114 53.6776 27.4207 52.2607 27.4141 50.7812C27.4141 48.623 28.4805 45.1699 30.4863 40.752C32.1236 41.2601 33.8764 41.2601 35.5137 40.752C37.5195 45.1699 38.5859 48.623 38.5859 50.7812C38.5793 52.2607 37.9886 53.6776 36.9425 54.7237C35.8964 55.7698 34.4794 56.3605 33 56.3672ZM53.668 44.4336C52.9246 45.7099 51.7079 46.6417 50.2819 47.0267C48.8559 47.4117 47.3356 47.219 46.0508 46.4902C44.1719 45.3984 41.709 42.7578 38.8906 38.7969C40.1447 37.6343 41.0205 36.1216 41.4043 34.4551C46.2285 34.9121 49.7578 35.7246 51.6367 36.791C52.2725 37.1589 52.8294 37.6486 53.2757 38.232C53.722 38.8154 54.0488 39.4811 54.2375 40.191C54.4262 40.9009 54.473 41.641 54.3753 42.369C54.2775 43.097 54.0372 43.7986 53.668 44.4336Z" fill="#FFF8F8" stroke="#FFF8F8" stroke-width="4" mask="url(#path-1-inside-1_0_162)"/>
</svg>
