<svg width="23" height="21" viewBox="0 0 23 21" fill="none" xmlns="http://www.w3.org/2000/svg">
<path d="M15 6.53991V4.60094C15 3.99674 14.8707 3.39845 14.6194 2.84024C14.3681 2.28202 13.9998 1.77482 13.5355 1.34758C13.0712 0.920347 12.52 0.581444 11.9134 0.350226C11.3068 0.119007 10.6566 0 10 0C9.34339 0 8.69321 0.119007 8.08658 0.350226C7.47995 0.581444 6.92876 0.920347 6.46447 1.34758C6.00017 1.77482 5.63188 2.28202 5.3806 2.84024C5.12933 3.39845 5 3.99674 5 4.60094V9.20188C5 9.3762 5.07525 9.54338 5.20921 9.66664C5.34316 9.78991 5.52485 9.85915 5.71429 9.85915C5.90373 9.85915 6.08541 9.78991 6.21936 9.66664C6.35332 9.54338 6.42857 9.3762 6.42857 9.20188V7.85446H12.1429V6.53991H6.42857V4.60094C6.42857 3.72934 6.80485 2.89343 7.47462 2.27711C8.14439 1.6608 9.0528 1.31455 10 1.31455C10.9472 1.31455 11.8556 1.6608 12.5254 2.27711C13.1952 2.89343 13.5714 3.72934 13.5714 4.60094V9.16901C13.5714 9.34333 13.6467 9.51052 13.7806 9.63378C13.9146 9.75704 14.0963 9.82629 14.2857 9.82629C14.4752 9.82629 14.6568 9.75704 14.7908 9.63378C14.9247 9.51052 15 9.34333 15 9.16901V7.85446H18.5714V19.6854H1.42857V7.85446H3.57143V6.53991H0V19.7446C0 20.0776 0.143737 20.3969 0.39959 20.6323C0.655443 20.8677 1.00245 21 1.36429 21H18.6357C18.9975 21 19.3446 20.8677 19.6004 20.6323C19.8563 20.3969 20 20.0776 20 19.7446V6.53991H15Z" fill="#ddc1cc"/>
<ellipse cx="20" cy="12.5" rx="3" ry="2.5" fill="#FD77AB"/>
</svg>
